{
	"asset":{
		"version":"2.0",
		"generator":"Created using the official Cinema 4D glTF Exporter 1.000x284978"
	},
	"scenes":[{
		"nodes":[0]
	}],
	"nodes":[{
		"name":"Null",
		"translation":[0.0,
		0.0,
		0.0],
		"rotation":[-0.1736481785774231,
		0.0,
		0.0,
		-0.9848077297210693],
		"scale":[1.0,
		1.0,
		1.0],
		"children":[1,
		2,
		3]
	},
	{
		"name":"Sphere",
		"mesh":0,
		"translation":[0.0,
		55.891658782958987,
		0.0],
		"rotation":[0.0,
		0.0,
		0.0,
		-1.0],
		"scale":[1.0,
		1.0,
		1.0]
	},
	{
		"name":"Cone",
		"mesh":1,
		"translation":[0.0,
		33.306827545166019,
		1.7763568394002506e-15],
		"rotation":[0.0,
		0.0,
		0.0,
		-1.0],
		"scale":[1.0,
		1.0,
		1.0]
	},
	{
		"name":"Tube",
		"mesh":2,
		"translation":[0.0,
		9.100709915161133,
		-4.440892098500626e-16],
		"rotation":[0.0,
		0.0,
		0.0,
		-1.0],
		"scale":[1.0,
		1.0,
		1.0]
	}],
	"meshes":[{
		"name":"Sphere",
		"primitives":[{
			"attributes":{
				"POSITION":1,
				"NORMAL":2,
				"TEXCOORD_0":3
			},
			"indices":0,
			"material":0
		}]
	},
	{
		"name":"Cone",
		"primitives":[{
			"attributes":{
				"POSITION":5,
				"NORMAL":6,
				"TEXCOORD_0":7
			},
			"indices":4,
			"material":1
		}]
	},
	{
		"name":"Tube",
		"primitives":[{
			"attributes":{
				"POSITION":9,
				"NORMAL":10,
				"TEXCOORD_0":11
			},
			"indices":8,
			"material":2
		}]
	}],
	"accessors":[{
		"bufferView":0,
		"byteOffset":0,
		"type":"SCALAR",
		"componentType":5123,
		"count":7200,
		"min":[0],
		"max":[1323]
	},
	{
		"bufferView":1,
		"byteOffset":0,
		"type":"VEC3",
		"componentType":5126,
		"count":1324,
		"min":[-3.9921069145202638,
		-4.0,
		-3.984229326248169],
		"max":[3.9921069145202638,
		4.0,
		3.984229326248169]
	},
	{
		"bufferView":1,
		"byteOffset":12,
		"type":"VEC3",
		"componentType":5126,
		"count":1324,
		"min":[-0.9980272650718689,
		-1.0,
		-0.9960642457008362],
		"max":[0.9980272650718689,
		1.0,
		0.9960642457008362]
	},
	{
		"bufferView":1,
		"byteOffset":24,
		"type":"VEC2",
		"componentType":5126,
		"count":1324,
		"min":[0.0,
		0.0],
		"max":[1.0,
		1.0]
	},
	{
		"bufferView":2,
		"byteOffset":0,
		"type":"SCALAR",
		"componentType":5123,
		"count":6300,
		"min":[0],
		"max":[1172]
	},
	{
		"bufferView":3,
		"byteOffset":0,
		"type":"VEC3",
		"componentType":5126,
		"count":1173,
		"min":[-18.0,
		-19.5,
		-17.964481353759767],
		"max":[18.0,
		19.5,
		17.964481353759767]
	},
	{
		"bufferView":3,
		"byteOffset":12,
		"type":"VEC3",
		"componentType":5126,
		"count":1173,
		"min":[-0.925175666809082,
		-1.0,
		-0.9243913292884827],
		"max":[0.925175666809082,
		1.0,
		0.9243913292884827]
	},
	{
		"bufferView":3,
		"byteOffset":24,
		"type":"VEC2",
		"componentType":5126,
		"count":1173,
		"min":[0.0,
		0.0],
		"max":[1.0,
		1.0]
	},
	{
		"bufferView":4,
		"byteOffset":0,
		"type":"SCALAR",
		"componentType":5123,
		"count":9600,
		"min":[0],
		"max":[1682]
	},
	{
		"bufferView":5,
		"byteOffset":0,
		"type":"VEC3",
		"componentType":5126,
		"count":1683,
		"min":[-20.0,
		-6.0,
		-19.960535049438478],
		"max":[20.0,
		6.0,
		19.960535049438478]
	},
	{
		"bufferView":5,
		"byteOffset":12,
		"type":"VEC3",
		"componentType":5126,
		"count":1683,
		"min":[-1.0,
		-0.9999963045120239,
		-0.9980272650718689],
		"max":[1.0,
		0.9999963045120239,
		0.9980272650718689]
	},
	{
		"bufferView":5,
		"byteOffset":24,
		"type":"VEC2",
		"componentType":5126,
		"count":1683,
		"min":[0.0,
		0.0],
		"max":[1.0,
		1.0]
	}],
	"bufferViews":[{
		"buffer":0,
		"byteOffset":0,
		"byteLength":14400,
		"target":34963
	},
	{
		"buffer":0,
		"byteOffset":14400,
		"byteLength":42368,
		"target":34962,
		"byteStride":32
	},
	{
		"buffer":1,
		"byteOffset":0,
		"byteLength":12600,
		"target":34963
	},
	{
		"buffer":1,
		"byteOffset":12600,
		"byteLength":37536,
		"target":34962,
		"byteStride":32
	},
	{
		"buffer":2,
		"byteOffset":0,
		"byteLength":19200,
		"target":34963
	},
	{
		"buffer":2,
		"byteOffset":19200,
		"byteLength":53856,
		"target":34962,
		"byteStride":32
	}],
	"buffers":[{
		"uri":"data:application/octet-stream;base64,",
		"byteLength":56768
	},
	{
		"uri":"data:application/octet-stream;base64,",
		"byteLength":50136
	},
	{
		"uri":"data:application/octet-stream;base64,",
		"byteLength":73056
	}],
	"materials":[{
		"pbrMetallicRoughness":{
			"baseColorFactor":[1.0,
			0.5333333333333333,
			0.0,
			1.0],
			"metallicFactor":0.0,
			"roughnessFactor":0.5
		},
		"emissiveFactor":[0.0,
		0.0,
		0.0],
		"alphaMode":"OPAQUE",
		"doubleSided":true,
		"name":"Mat.2"
	},
	{
		"pbrMetallicRoughness":{
			"baseColorFactor":[0.025333333333333244,
			0.38,
			0.0,
			1.0],
			"metallicFactor":0.0,
			"roughnessFactor":0.5
		},
		"emissiveFactor":[0.0,
		0.0,
		0.0],
		"alphaMode":"OPAQUE",
		"doubleSided":true,
		"name":"Mat.3"
	},
	{
		"pbrMetallicRoughness":{
			"baseColorFactor":[1.0,
			0.0,
			0.0,
			1.0],
			"metallicFactor":0.0,
			"roughnessFactor":0.5
		},
		"emissiveFactor":[0.0,
		0.0,
		0.0],
		"alphaMode":"OPAQUE",
		"doubleSided":true,
		"name":"Mat.1"
	}]
}