{
	"asset":{
		"generator":"Created using the official Cinema 4D glTF Exporter 1.000x284978",
		"version":"2.0"
	},
	"scenes":[{
		"nodes":[0]
	}],
	"nodes":[{
		"name":"glasses",
		"translation":[-0.09071580320596695,
		0.0,
		0.0],
		"rotation":[0.0,
		0.0,
		0.0,
		-1.0],
		"scale":[1.0,
		1.0,
		1.0],
		"children":[1,
		2,
		3,
		4]
	},
	{
		"name":"glas",
		"translation":[0.09071580320596695,
		0.0,
		0.0],
		"rotation":[0.0,
		0.0,
		0.0,
		-1.0],
		"scale":[1.0,
		1.0,
		1.0],
		"children":[5]
	},
	{
		"name":"frame",
		"translation":[0.09071580320596695,
		0.0,
		0.0],
		"rotation":[0.0,
		0.0,
		0.0,
		-1.0],
		"scale":[1.0,
		1.0,
		1.0],
		"children":[6]
	},
	{
		"name":"ears",
		"translation":[0.0,
		0.846907913684845,
		0.0],
		"rotation":[-0.08715574443340302,
		0.0,
		0.0,
		-0.9961947202682495],
		"scale":[1.0,
		1.0,
		1.0],
		"children":[7,
		8]
	},
	{
		"name":"middle",
		"translation":[-8.006996154785157,
		-6.329540252685547,
		0.0],
		"rotation":[0.0,
		0.0,
		0.0,
		-1.0],
		"scale":[1.0,
		1.0,
		1.0],
		"children":[9]
	},
	{
		"name":"Extrude",
		"translation":[0.0,
		0.0,
		0.30030322074890139],
		"rotation":[0.0,
		0.0,
		0.0,
		-1.0],
		"scale":[1.0,
		1.0,
		1.0],
		"children":[10]
	},
	{
		"name":"glas left",
		"translation":[-7.103141784667969,
		0.0,
		0.0],
		"rotation":[0.0,
		0.0,
		0.0,
		-1.0],
		"scale":[1.0,
		1.0,
		1.0],
		"children":[11]
	},
	{
		"name":"Sweep.2 Instance",
		"translation":[12.081201553344727,
		-0.584541380405426,
		0.31398534774780276],
		"rotation":[3.899332523538135e-10,
		-0.0523359552025795,
		-7.440369653721746e-9,
		0.9986295104026794],
		"scale":[1.0,
		1.0,
		1.0],
		"children":[12]
	},
	{
		"name":"Sweep.2",
		"translation":[-12.06041431427002,
		-0.5982733368873596,
		0.30460259318351748],
		"rotation":[3.899332523538135e-10,
		-0.0523359552025795,
		7.440369653721746e-9,
		-0.9986295104026794],
		"scale":[1.0,
		1.0,
		1.0],
		"children":[13]
	},
	{
		"name":"middle",
		"mesh":0
	},
	{
		"name":"Extrude",
		"mesh":1
	},
	{
		"name":"glas left",
		"mesh":2
	},
	{
		"name":"Sweep.2",
		"children":[14]
	},
	{
		"name":"Sweep.2",
		"mesh":3
	},
	{
		"name":"Sweep.2",
		"mesh":4
	}],
	"meshes":[{
		"name":"middle",
		"primitives":[{
			"attributes":{
				"POSITION":1,
				"NORMAL":2,
				"TEXCOORD_0":3
			},
			"indices":0,
			"material":0
		}]
	},
	{
		"name":"Extrude",
		"primitives":[{
			"attributes":{
				"POSITION":5,
				"NORMAL":6,
				"TEXCOORD_0":7
			},
			"indices":4,
			"material":1
		}]
	},
	{
		"name":"glas left",
		"primitives":[{
			"attributes":{
				"POSITION":9,
				"NORMAL":10,
				"TEXCOORD_0":11
			},
			"indices":8,
			"material":0
		}]
	},
	{
		"name":"Sweep.2",
		"primitives":[{
			"attributes":{
				"POSITION":13,
				"NORMAL":14,
				"TEXCOORD_0":15
			},
			"indices":12,
			"material":0
		}]
	},
	{
		"name":"Sweep.2",
		"primitives":[{
			"attributes":{
				"POSITION":17,
				"NORMAL":18,
				"TEXCOORD_0":19
			},
			"indices":16,
			"material":0
		}]
	}],
	"accessors":[{
		"bufferView":0,
		"type":"SCALAR",
		"componentType":5123,
		"count":15972,
		"byteOffset":0,
		"min":[0],
		"max":[3103]
	},
	{
		"bufferView":1,
		"type":"VEC3",
		"componentType":5126,
		"count":3104,
		"byteOffset":0,
		"min":[5.764072895050049,
		6.38124418258667,
		-0.5],
		"max":[10.389118194580079,
		8.02885627746582,
		0.5]
	},
	{
		"bufferView":1,
		"type":"VEC3",
		"componentType":5126,
		"count":3104,
		"byteOffset":12,
		"min":[-0.7658722996711731,
		-0.999995231628418,
		-1.0],
		"max":[0.7545537352561951,
		0.9999954700469971,
		1.0]
	},
	{
		"bufferView":1,
		"type":"VEC2",
		"componentType":5126,
		"count":3104,
		"byteOffset":24,
		"min":[0.0,
		0.0],
		"max":[1.0,
		1.0]
	},
	{
		"bufferView":2,
		"type":"SCALAR",
		"componentType":5123,
		"count":1704,
		"byteOffset":0,
		"min":[0],
		"max":[607]
	},
	{
		"bufferView":3,
		"type":"VEC3",
		"componentType":5126,
		"count":608,
		"byteOffset":0,
		"min":[-12.103141784667969,
		-5.0,
		-0.5],
		"max":[12.103141784667969,
		5.0,
		0.0]
	},
	{
		"bufferView":3,
		"type":"VEC3",
		"componentType":5126,
		"count":608,
		"byteOffset":12,
		"min":[-1.0,
		-1.0,
		-1.0],
		"max":[1.0,
		1.0,
		1.0]
	},
	{
		"bufferView":3,
		"type":"VEC2",
		"componentType":5126,
		"count":608,
		"byteOffset":24,
		"min":[0.0,
		0.0],
		"max":[1.0,
		1.0]
	},
	{
		"bufferView":4,
		"type":"SCALAR",
		"componentType":5123,
		"count":62208,
		"byteOffset":0,
		"min":[0],
		"max":[11679]
	},
	{
		"bufferView":5,
		"type":"VEC3",
		"componentType":5126,
		"count":11680,
		"byteOffset":0,
		"min":[-5.499854564666748,
		-5.499854564666748,
		-0.5],
		"max":[19.706138610839845,
		5.499854564666748,
		0.5]
	},
	{
		"bufferView":5,
		"type":"VEC3",
		"componentType":5126,
		"count":11680,
		"byteOffset":12,
		"min":[-0.9998754858970642,
		-0.9998754858970642,
		-1.0],
		"max":[0.9998754858970642,
		0.9998754858970642,
		1.0]
	},
	{
		"bufferView":5,
		"type":"VEC2",
		"componentType":5126,
		"count":11680,
		"byteOffset":24,
		"min":[0.0,
		0.0],
		"max":[1.0,
		1.0]
	},
	{
		"bufferView":6,
		"type":"SCALAR",
		"componentType":5123,
		"count":12084,
		"byteOffset":0,
		"min":[0],
		"max":[2418]
	},
	{
		"bufferView":7,
		"type":"VEC3",
		"componentType":5126,
		"count":2419,
		"byteOffset":0,
		"min":[-0.4326672852039337,
		-2.371156692504883,
		-20.798254013061525],
		"max":[0.5673327445983887,
		0.4934537708759308,
		0.014230344444513321]
	},
	{
		"bufferView":7,
		"type":"VEC3",
		"componentType":5126,
		"count":2419,
		"byteOffset":12,
		"min":[-1.0,
		-0.9999997615814209,
		-0.9999797344207764],
		"max":[1.0,
		0.9999997615814209,
		0.9999997615814209]
	},
	{
		"bufferView":7,
		"type":"VEC2",
		"componentType":5126,
		"count":2419,
		"byteOffset":24,
		"min":[0.0,
		0.0],
		"max":[1.0,
		1.0]
	},
	{
		"bufferView":8,
		"type":"SCALAR",
		"componentType":5123,
		"count":12084,
		"byteOffset":0,
		"min":[0],
		"max":[2418]
	},
	{
		"bufferView":9,
		"type":"VEC3",
		"componentType":5126,
		"count":2419,
		"byteOffset":0,
		"min":[-0.4326672852039337,
		-2.371156692504883,
		-20.798254013061525],
		"max":[0.5673327445983887,
		0.4934537708759308,
		0.014230344444513321]
	},
	{
		"bufferView":9,
		"type":"VEC3",
		"componentType":5126,
		"count":2419,
		"byteOffset":12,
		"min":[-1.0,
		-0.9999997615814209,
		-0.9999797344207764],
		"max":[1.0,
		0.9999997615814209,
		0.9999997615814209]
	},
	{
		"bufferView":9,
		"type":"VEC2",
		"componentType":5126,
		"count":2419,
		"byteOffset":24,
		"min":[0.0,
		0.0],
		"max":[1.0,
		1.0]
	}],
	"bufferViews":[{
		"buffer":0,
		"byteOffset":0,
		"byteLength":31944,
		"target":34963
	},
	{
		"buffer":0,
		"byteOffset":31944,
		"byteLength":99328,
		"target":34962,
		"byteStride":32
	},
	{
		"buffer":1,
		"byteOffset":0,
		"byteLength":3408,
		"target":34963
	},
	{
		"buffer":1,
		"byteOffset":3408,
		"byteLength":19456,
		"target":34962,
		"byteStride":32
	},
	{
		"buffer":2,
		"byteOffset":0,
		"byteLength":124416,
		"target":34963
	},
	{
		"buffer":2,
		"byteOffset":124416,
		"byteLength":373760,
		"target":34962,
		"byteStride":32
	},
	{
		"buffer":3,
		"byteOffset":0,
		"byteLength":24168,
		"target":34963
	},
	{
		"buffer":3,
		"byteOffset":24168,
		"byteLength":77408,
		"target":34962,
		"byteStride":32
	},
	{
		"buffer":4,
		"byteOffset":0,
		"byteLength":24168,
		"target":34963
	},
	{
		"buffer":4,
		"byteOffset":24168,
		"byteLength":77408,
		"target":34962,
		"byteStride":32
	}],
	"buffers":[{
		"uri":"data:application/octet-stream;base64,",
		"byteLength":131272
	},
	{
		"uri":"data:application/octet-stream;base64,",
		"byteLength":22864
	},
	{
		"uri":"data:application/octet-stream;base64,",
		"byteLength":498176
	},
	{
		"uri":"data:application/octet-stream;base64,",
		"byteLength":101576
	},
	{
		"uri":"data:application/octet-stream;base64,",
		"byteLength":101576
	}],
	"materials":[{
		"pbrMetallicRoughness":{
			"baseColorFactor":[1.0,
			0.7166666666666667,
			0.0,
			1.0],
			"metallicFactor":0.39,
			"roughnessFactor":0.08
		},
		"emissiveFactor":[0.0,
		0.0,
		0.0],
		"alphaMode":"OPAQUE",
		"doubleSided":true,
		"name":"Mat"
	},
	{
		"pbrMetallicRoughness":{
			"baseColorFactor":[1.0,
			1.0,
			1.0,
			0.19999999999999996],
			"metallicFactor":1.0,
			"roughnessFactor":1.0
		},
		"emissiveFactor":[0.0,
		0.0,
		0.0],
		"alphaMode":"BLEND",
		"doubleSided":true,
		"name":"Mat.1"
	}]
}