{
	"asset":{
		"version":"2.0",
		"generator":"Created using the official Cinema 4D glTF Exporter 1.000x284978"
	},
	"scenes":[{
		"nodes":[0,
		1]
	}],
	"nodes":[{
		"name":"Santa's Hat.4",
		"translation":[0.0,
		0.0,
		0.0],
		"rotation":[-0.1736481785774231,
		0.0,
		0.0,
		-0.9848077297210693],
		"scale":[1.0,
		1.0,
		1.0],
		"children":[2,
		3]
	},
	{
		"name":"Santa's Hat.2"
	},
	{
		"name":"Santa's Hat.4-Mat.1",
		"mesh":0
	},
	{
		"name":"Santa's Hat.4-Mat",
		"mesh":1
	}],
	"meshes":[{
		"name":"Santa's Hat.4-Mat.1",
		"primitives":[{
			"attributes":{
				"POSITION":1,
				"NORMAL":2,
				"TEXCOORD_0":3
			},
			"indices":0,
			"material":0
		}]
	},
	{
		"name":"Santa's Hat.4-Mat",
		"primitives":[{
			"attributes":{
				"POSITION":5,
				"NORMAL":6,
				"TEXCOORD_0":7
			},
			"indices":4,
			"material":1
		}]
	}],
	"accessors":[{
		"bufferView":0,
		"byteOffset":0,
		"type":"SCALAR",
		"componentType":5123,
		"count":15000,
		"min":[0],
		"max":[2660]
	},
	{
		"bufferView":1,
		"byteOffset":0,
		"type":"VEC3",
		"componentType":5126,
		"count":2661,
		"min":[-10.400517463684082,
		4.956026554107666,
		-10.379477500915528],
		"max":[17.373430252075197,
		27.22856903076172,
		10.379477500915528]
	},
	{
		"bufferView":1,
		"byteOffset":12,
		"type":"VEC3",
		"componentType":5126,
		"count":2661,
		"min":[-0.9469600915908814,
		-0.9999994039535523,
		-0.9893166422843933],
		"max":[0.9999816417694092,
		0.9999998807907105,
		0.9895814061164856]
	},
	{
		"bufferView":1,
		"byteOffset":24,
		"type":"VEC2",
		"componentType":5126,
		"count":2661,
		"min":[0.0,
		0.0],
		"max":[1.0,
		1.0]
	},
	{
		"bufferView":2,
		"byteOffset":0,
		"type":"SCALAR",
		"componentType":5123,
		"count":13200,
		"min":[0],
		"max":[2394]
	},
	{
		"bufferView":3,
		"byteOffset":0,
		"type":"VEC3",
		"componentType":5126,
		"count":2395,
		"min":[-11.20149040222168,
		0.024135492742061616,
		-11.177899360656739],
		"max":[22.522499084472658,
		26.136844635009767,
		11.177899360656739]
	},
	{
		"bufferView":3,
		"byteOffset":12,
		"type":"VEC3",
		"componentType":5126,
		"count":2395,
		"min":[-1.0,
		-0.9999873638153076,
		-0.9980272650718689],
		"max":[1.0,
		0.9999938011169434,
		0.9980272650718689]
	},
	{
		"bufferView":3,
		"byteOffset":24,
		"type":"VEC2",
		"componentType":5126,
		"count":2395,
		"min":[0.0,
		0.0],
		"max":[1.0,
		1.0]
	}],
	"bufferViews":[{
		"buffer":0,
		"byteOffset":0,
		"byteLength":30000,
		"target":34963
	},
	{
		"buffer":0,
		"byteOffset":30000,
		"byteLength":85152,
		"target":34962,
		"byteStride":32
	},
	{
		"buffer":1,
		"byteOffset":0,
		"byteLength":26400,
		"target":34963
	},
	{
		"buffer":1,
		"byteOffset":26400,
		"byteLength":76640,
		"target":34962,
		"byteStride":32
	}],
	"buffers":[{
		"uri":"data:application/octet-stream;base64,",
		"byteLength":115152
	},
	{
		"uri":"data:application/octet-stream;base64,",
		"byteLength":103040
	}],
	"materials":[{
		"pbrMetallicRoughness":{
			"baseColorFactor":[1.0,
			0.0,
			0.0,
			1.0],
			"metallicFactor":0.0,
			"roughnessFactor":0.5
		},
		"emissiveFactor":[0.0,
		0.0,
		0.0],
		"alphaMode":"OPAQUE",
		"doubleSided":true,
		"name":"Mat.1"
	},
	{
		"pbrMetallicRoughness":{
			"baseColorFactor":[1.0,
			1.0,
			1.0,
			1.0],
			"metallicFactor":0.0,
			"roughnessFactor":0.5
		},
		"emissiveFactor":[0.0,
		0.0,
		0.0],
		"alphaMode":"OPAQUE",
		"doubleSided":true,
		"name":"Mat"
	}]
}